<?xml version="1.0" standalone="no"?>
<!DOCTYPE svg PUBLIC "-//W3C//DTD SVG 20010904//EN"
 "http://www.w3.org/TR/2001/REC-SVG-20010904/DTD/svg10.dtd">
<svg version="1.0" xmlns="http://www.w3.org/2000/svg"
 width="308.000000pt" height="308.000000pt" viewBox="0 0 308.000000 308.000000"
 preserveAspectRatio="xMidYMid meet">
<metadata>
Created by potrace 1.11, written by Peter Selinger 2001-2013
</metadata>
<g transform="translate(0.000000,308.000000) scale(0.100000,-0.100000)"
fill="#000000" stroke="none">
<path d="M0 1540 l0 -1540 60 0 c47 0 60 3 60 15 0 8 5 15 12 15 6 0 9 3 5 6
-6 6 50 115 94 180 l28 41 -29 16 c-15 9 -39 17 -52 17 -28 1 -82 30 -85 47
-6 30 -15 79 -17 91 -1 8 -7 17 -12 20 -14 11 -16 60 -21 436 -3 324 -2 350
14 369 12 14 13 18 3 12 -13 -8 -13 -7 0 9 16 20 23 49 10 41 -18 -11 -29 75
-30 230 -3 490 1 779 11 792 12 14 7 112 -7 134 -10 17 -12 59 -2 65 5 3 6 9
4 13 -5 7 -7 172 -4 269 0 23 5 42 10 42 5 0 4 9 -2 21 -9 15 -9 28 -1 47 6
15 13 38 15 52 3 14 5 27 6 30 2 3 2 8 1 13 0 4 4 7 11 7 6 0 9 3 5 6 -3 4 4
15 16 25 22 18 22 18 -40 19 l-63 0 0 -1540z"/>
<path d="M750 3071 c0 -6 5 -11 12 -11 6 0 9 -3 5 -6 -3 -4 0 -19 8 -34 10
-18 13 -48 10 -91 -10 -136 -9 -172 5 -164 6 3 7 -1 4 -10 -4 -10 6 -31 25
-55 17 -22 36 -50 41 -62 8 -20 9 -18 9 15 1 21 -2 36 -6 34 -5 -3 -8 8 -9 24
-1 16 0 29 2 29 8 0 54 -88 54 -103 0 -11 5 -14 18 -10 15 6 15 5 3 -10 -10
-13 -10 -17 -1 -17 7 0 10 -8 7 -20 -3 -11 -2 -18 3 -15 11 7 24 -39 34 -117
3 -24 2 -34 -1 -24 -6 24 -41 61 -49 54 -3 -4 0 -16 6 -29 7 -12 12 -49 12
-81 0 -41 5 -61 14 -65 8 -3 14 -9 14 -15 0 -5 -4 -6 -10 -3 -22 13 3 -51 40
-105 10 -14 31 -51 48 -82 l31 -56 -72 -43 c-84 -51 -216 -178 -276 -267 -122
-181 -175 -431 -136 -637 32 -172 117 -343 231 -465 34 -37 40 -49 33 -67 -10
-27 -9 -26 -46 -12 -23 8 -26 8 -15 -2 17 -18 15 -34 -2 -20 -16 13 -55 2 -75
-23 -11 -13 -11 -16 0 -16 8 -1 1 -8 -14 -16 -15 -8 -25 -19 -22 -25 4 -5 15
-3 28 6 23 16 37 19 37 8 0 -9 -56 -49 -82 -58 -13 -5 -15 -2 -11 14 6 22 -12
30 -19 9 -3 -7 -7 -5 -11 6 -4 11 -3 15 4 10 7 -4 9 2 7 17 -4 27 -65 49 -78
29 -4 -7 -10 -11 -14 -10 -10 3 -80 -33 -84 -42 -2 -5 -10 -8 -17 -8 -18 0
-67 -45 -58 -53 3 -4 1 -7 -5 -7 -7 0 -12 -11 -12 -23 0 -14 -15 -40 -35 -60
-19 -20 -36 -44 -36 -54 -1 -10 -2 -25 -3 -33 0 -8 -9 -14 -18 -12 -13 2 -18
-4 -18 -21 0 -13 -9 -33 -20 -45 -11 -12 -20 -26 -20 -32 0 -5 -5 -10 -11 -10
-6 0 -8 7 -5 15 17 43 17 48 0 25 -21 -27 -64 -104 -64 -114 0 -3 9 -6 20 -6
14 0 20 7 20 23 0 26 16 54 25 45 4 -3 2 -15 -4 -26 -6 -12 -11 -25 -11 -31 0
-7 283 -10 878 -9 482 0 862 4 844 8 -54 12 -49 20 11 19 55 -2 75 -13 40 -22
-13 -3 -11 -5 6 -6 13 0 30 7 37 17 16 20 18 52 4 52 -5 0 -10 -7 -10 -15 0
-8 -4 -15 -10 -15 -13 0 -13 27 1 35 5 4 21 4 35 1 18 -5 24 -13 24 -33 l0
-27 23 22 c17 18 19 24 9 31 -8 5 -13 11 -12 15 0 3 -4 14 -9 24 -10 16 -11
15 -16 -3 -5 -17 -13 -20 -40 -17 -27 3 -34 0 -40 -17 -3 -12 -11 -21 -16 -21
-6 0 -6 6 0 18 11 21 7 85 -6 89 -5 2 -13 -16 -19 -39 -5 -23 -15 -43 -22 -46
-7 -2 -10 2 -6 12 8 22 -19 49 -35 33 -8 -8 -11 -7 -11 5 0 9 5 20 12 24 7 5
2 15 -17 30 -26 20 -27 24 -12 38 23 24 35 20 45 -17 l9 -32 15 36 c9 20 21
40 27 43 16 11 13 26 -4 20 -8 -4 -15 -12 -15 -20 0 -8 -9 -14 -20 -14 -27 0
-25 28 2 32 13 2 24 11 26 22 3 15 0 18 -17 13 -23 -6 -26 0 -12 23 11 16 -17
40 -49 43 -25 2 -27 35 -2 43 9 3 34 15 55 26 21 11 41 17 44 14 4 -3 2 -6 -4
-6 -5 0 -20 -9 -33 -20 -15 -13 -18 -20 -9 -20 8 0 30 14 49 31 19 17 28 27
20 24 -8 -4 -4 3 9 15 13 11 30 19 38 16 7 -3 12 -2 10 2 -4 15 73 74 88 68
10 -3 17 3 21 19 6 26 36 57 50 53 15 -4 54 13 54 23 0 5 -4 9 -9 9 -16 0 -6
26 31 78 50 68 87 143 114 227 l22 70 52 7 c88 13 147 58 174 133 12 33 15 36
15 15 2 -73 -96 -150 -208 -162 -19 -3 -27 -15 -45 -73 -13 -38 -37 -98 -55
-133 -17 -34 -29 -67 -26 -72 3 -5 -3 -14 -12 -20 -16 -10 -16 -11 -1 -6 10 3
20 1 23 -4 4 -6 1 -10 -5 -10 -8 0 -8 -6 0 -20 9 -17 8 -20 -9 -20 -11 0 -23
-4 -26 -10 -4 -6 1 -7 11 -3 14 5 15 3 5 -15 -11 -20 -6 -24 62 -57 41 -19 80
-41 86 -49 6 -8 37 -24 69 -37 98 -39 202 -124 202 -165 0 -20 27 -79 57 -123
13 -19 23 -40 23 -47 0 -7 11 -30 25 -50 14 -21 23 -45 20 -54 -3 -10 1 -23
10 -30 8 -7 12 -16 9 -21 -3 -5 48 -9 115 -9 l121 0 0 1540 0 1540 -446 0
c-446 0 -447 0 -429 -20 10 -11 14 -20 10 -20 -4 0 -1 -8 8 -17 8 -10 19 -30
22 -45 4 -16 11 -25 16 -22 13 8 11 -10 -3 -25 -9 -9 -9 -12 -1 -7 6 3 13 3
15 -1 1 -5 25 -17 52 -28 73 -30 109 -80 116 -160 5 -58 4 -62 -12 -54 -10 5
-18 20 -18 33 0 13 -7 26 -15 30 -9 3 -15 19 -15 41 0 25 -5 37 -17 41 -10 3
-28 10 -39 16 -28 13 -61 2 -102 -33 -18 -16 -38 -29 -45 -29 -21 0 -97 -72
-97 -92 0 -21 -20 -24 -38 -6 -9 9 -12 8 -12 -5 0 -10 -10 -28 -21 -40 -12
-12 -18 -16 -14 -8 5 9 3 12 -5 9 -8 -2 -15 -23 -17 -46 -3 -35 -1 -40 13 -35
13 5 13 7 2 14 -10 7 -11 9 0 9 7 0 10 5 6 12 -4 7 -3 8 5 4 6 -4 9 -12 6 -17
-4 -5 1 -9 9 -9 14 0 14 -2 -1 -19 -9 -11 -21 -18 -27 -15 -6 3 -2 -2 9 -11
17 -13 18 -17 5 -25 -8 -5 -18 -6 -22 -4 -4 3 -5 -2 -2 -11 5 -11 10 -13 17
-6 13 13 37 2 30 -15 -3 -9 2 -14 15 -14 11 0 22 -5 24 -12 3 -9 48 -24 48
-15 0 1 4 17 10 35 8 29 7 33 -6 28 -8 -3 0 9 18 27 18 18 43 51 56 73 13 21
38 49 56 60 l32 22 -3 -142 c-3 -153 -6 -197 -16 -213 -3 -5 -2 -25 3 -44 5
-19 7 -47 5 -64 -2 -16 -4 -103 -5 -193 -2 -89 -6 -165 -10 -167 -18 -11 1
-68 51 -150 30 -51 63 -121 75 -165 l22 -75 47 -7 c26 -4 61 -12 76 -18 39
-16 98 -91 104 -132 5 -31 5 -31 -12 9 -10 23 -28 54 -41 69 -30 33 -97 64
-143 64 -36 0 -36 0 -64 78 -40 114 -90 203 -160 285 -61 72 -142 146 -198
181 -26 16 -28 22 -23 54 5 32 4 34 -6 15 -13 -27 -28 -29 -69 -7 -17 8 -65
27 -107 41 -208 68 -386 70 -584 9 -41 -13 -46 -13 -41 0 3 9 -1 14 -12 14
-13 0 -16 6 -11 23 3 12 6 26 6 30 0 5 10 6 23 3 12 -3 17 -3 10 0 -8 4 -10
21 -6 54 4 31 1 55 -6 63 -6 8 -9 28 -7 45 2 17 1 34 -2 37 -3 3 -7 16 -8 30
-1 14 -14 54 -28 89 -14 36 -26 70 -26 78 0 10 -3 9 -10 -2 -8 -12 -10 -10
-10 10 -1 14 -14 41 -30 60 -17 19 -30 40 -30 47 0 15 -21 55 -33 64 -5 3 -9
10 -9 15 0 5 -4 8 -9 7 -5 -2 -8 0 -6 5 4 13 -41 54 -52 47 -7 -3 -11 -3 -10
2 3 20 -3 33 -30 62 -18 19 -24 31 -15 31 25 0 13 27 -20 46 -11 6 -23 17 -27
25 -3 8 -15 32 -25 53 -18 38 -44 59 -44 37z m1635 -119 c-3 -3 -11 0 -18 7
-9 10 -8 11 6 5 10 -3 15 -9 12 -12z m14 -31 c10 -7 7 -9 -12 -8 -14 1 -23 5
-20 10 6 9 15 9 32 -2z m-1499 -157 c0 -8 -19 -13 -24 -6 -3 5 1 9 9 9 8 0 15
-2 15 -3z m76 -41 c-2 -9 -9 -19 -17 -21 -11 -3 -11 -1 1 7 8 6 11 11 7 11 -5
0 -5 5 -2 10 9 15 14 12 11 -7z m-138 -18 c-3 -3 -9 2 -12 12 -6 14 -5 15 5 6
7 -7 10 -15 7 -18z m1527 7 c-3 -3 -11 0 -18 7 -9 10 -8 11 6 5 10 -3 15 -9
12 -12z m-247 -39 c1 -26 1 -27 -13 -9 -8 10 -12 23 -9 27 10 17 20 9 22 -18z
m-1101 2 c0 -8 -4 -12 -9 -9 -5 3 -6 10 -3 15 9 13 12 11 12 -6z m1093 -39 c0
-3 -4 -8 -10 -11 -5 -3 -10 -1 -10 4 0 6 5 11 10 11 6 0 10 -2 10 -4z m-32
-19 c9 -10 3 -13 -24 -13 -40 0 -42 3 -11 16 12 5 23 9 23 9 1 1 6 -5 12 -12z
m-1028 -15 c0 -12 -2 -14 -8 -4 -5 7 -16 10 -25 6 -9 -3 -17 -2 -17 3 0 5 11
10 25 11 18 1 25 -3 25 -16z m995 -72 c-3 -5 -13 -10 -21 -10 -8 0 -14 5 -14
10 0 6 9 10 21 10 11 0 17 -4 14 -10z m22 -22 c-3 -8 -6 -5 -6 6 -1 11 2 17 5
13 3 -3 4 -12 1 -19z m-977 -62 c0 -3 -4 -8 -10 -11 -5 -3 -10 -1 -10 4 0 6 5
11 10 11 6 0 10 -2 10 -4z m55 -66 c3 -6 -1 -7 -9 -4 -18 7 -21 14 -7 14 6 0
13 -4 16 -10z m-45 -10 c0 -5 -9 -14 -20 -20 -16 -9 -18 -8 -14 5 3 8 10 12
15 9 5 -3 9 0 9 5 0 6 2 11 5 11 3 0 5 -4 5 -10z m0 -34 c0 -3 -4 -8 -10 -11
-5 -3 -10 -1 -10 4 0 6 5 11 10 11 6 0 10 -2 10 -4z m-90 -22 c0 -9 7 -22 16
-29 9 -6 22 -28 29 -47 11 -32 10 -38 -8 -53 -25 -21 -45 -6 -28 22 10 16 11
15 5 -7 -5 -19 -4 -22 6 -14 13 13 9 50 -6 47 -5 -1 -11 10 -12 25 -1 14 -6
28 -10 31 -17 12 -22 41 -7 41 8 0 15 -7 15 -16z m140 -25 c0 -14 -17 -10 -23
5 -4 10 -1 13 9 9 7 -3 14 -9 14 -14z m-20 -24 c0 -2 -6 -5 -13 -8 -8 -3 -14
1 -14 8 0 7 6 11 14 8 7 -3 13 -6 13 -8z m14 -31 c3 -8 2 -13 -3 -9 -5 3 -11
-1 -14 -7 -2 -7 -8 -10 -12 -6 -4 4 -1 14 6 22 17 19 16 19 23 0z m-33 -87
c32 -27 46 -72 24 -81 -17 -6 -65 58 -65 86 0 23 9 22 41 -5z m-47 -27 c-6 -5
-24 21 -24 34 0 6 6 1 14 -10 8 -10 12 -21 10 -24z m642 -45 c256 -64 461
-228 574 -460 27 -55 53 -117 59 -137 l9 -38 -51 1 c-45 0 -49 2 -29 11 13 7
21 17 17 26 -3 7 -5 21 -5 29 0 11 -7 14 -25 9 -48 -12 -76 -26 -70 -35 3 -6
19 -4 40 5 43 17 45 17 45 -1 0 -8 -14 -17 -35 -21 -19 -3 -35 -10 -35 -15 0
-5 -8 -9 -17 -9 -12 0 -24 16 -37 48 -27 66 -118 202 -164 244 -113 102 -250
166 -401 188 -218 32 -468 -64 -616 -237 -61 -71 -128 -199 -149 -283 l-13
-55 834 -5 835 -5 24 -28 c33 -38 33 -96 0 -134 l-24 -28 -195 -3 -195 -3 -6
-37 c-3 -20 -24 -75 -46 -122 -117 -241 -405 -377 -667 -315 -82 19 -206 82
-266 135 -115 102 -184 245 -194 403 l-6 87 -48 0 -49 0 0 -71 c0 -95 22 -175
77 -287 78 -156 228 -283 408 -343 60 -21 89 -24 210 -24 128 0 147 2 225 29
188 64 358 226 426 404 11 27 23 42 35 42 9 0 19 -4 21 -10 5 -13 88 -25 88
-12 0 6 -8 12 -17 14 -10 3 3 5 29 6 l46 1 -10 -37 c-22 -80 -98 -220 -161
-297 -137 -167 -302 -264 -523 -310 -313 -65 -669 75 -864 340 -60 81 -80 117
-114 209 -143 379 1 799 348 1021 201 128 451 168 682 110z m-71 -260 c157
-40 318 -163 384 -292 17 -34 31 -67 31 -73 0 -7 -182 -10 -556 -10 l-556 0 7
28 c11 46 85 150 146 205 64 58 174 118 259 141 72 19 211 20 285 1z m745
-1199 c0 -2 -7 -7 -16 -10 -8 -3 -12 -2 -9 4 6 10 25 14 25 6z m514 -64 c3 -5
-1 -9 -9 -9 -8 0 -12 4 -9 9 3 4 7 8 9 8 2 0 6 -4 9 -8z m-350 -10 c2 -4 -4
-8 -14 -8 -10 0 -16 4 -14 8 3 4 9 8 14 8 5 0 11 -4 14 -8z m-1603 -19 c13
-16 12 -17 -3 -4 -10 7 -18 15 -18 17 0 8 8 3 21 -13z m1899 -10 c0 -5 -4 -14
-9 -21 -7 -11 -9 -11 -14 1 -3 8 -3 18 0 21 9 8 23 7 23 -1z m45 -3 c3 -5 1
-10 -4 -10 -6 0 -11 5 -11 10 0 6 2 10 4 10 3 0 8 -4 11 -10z m-2115 -10 c0
-5 -2 -10 -4 -10 -3 0 -8 5 -11 10 -3 6 -1 10 4 10 6 0 11 -4 11 -10z m75 0
c8 -13 -20 -24 -41 -16 -20 8 -9 26 16 26 10 0 22 -5 25 -10z m1811 -25 c1
-14 -2 -25 -6 -25 -6 0 -7 36 -1 48 4 7 6 -1 7 -23z m148 4 c-3 -5 -10 -7 -15
-3 -5 3 -7 10 -3 15 3 5 10 7 15 3 5 -3 7 -10 3 -15z m-109 1 c3 -5 1 -10 -4
-10 -6 0 -11 5 -11 10 0 6 2 10 4 10 3 0 8 -4 11 -10z m40 -39 c-9 -8 -36 -10
-30 -2 2 4 11 8 20 8 8 0 13 -3 10 -6z m95 5 c0 -2 -7 -7 -16 -10 -8 -3 -12
-2 -9 4 6 10 25 14 25 6z m-1954 -32 c-3 -8 -2 -12 4 -9 6 3 10 1 10 -4 0 -6
-4 -11 -10 -11 -5 0 -10 -6 -10 -14 0 -9 -7 -12 -19 -9 -12 3 -20 -2 -24 -16
-3 -14 0 -21 9 -21 9 0 14 -11 13 -32 -1 -18 -3 -25 -6 -15 -5 19 -23 24 -23
6 0 -8 -4 -8 -14 0 -12 10 -17 8 -26 -8 -6 -12 -17 -21 -25 -21 -14 0 -19 -13
-18 -46 0 -6 -8 -9 -18 -7 -23 6 -25 -10 -4 -27 23 -19 18 -27 -14 -22 -24 3
-29 9 -28 27 2 30 74 115 92 109 7 -3 15 2 19 12 5 12 2 15 -10 10 -10 -4 -14
-2 -11 6 2 7 10 12 17 10 6 -1 14 7 17 18 3 11 16 23 28 26 27 7 42 34 20 34
-8 0 -15 5 -15 10 0 6 12 10 26 10 20 0 25 -4 20 -16z m-66 -8 c0 -2 -7 -6
-15 -10 -8 -3 -15 -1 -15 4 0 6 7 10 15 10 8 0 15 -2 15 -4z m-260 -16 c0 -5
-2 -10 -4 -10 -3 0 -8 5 -11 10 -3 6 -1 10 4 10 6 0 11 -4 11 -10z m1256 -36
c-3 -8 1 -14 9 -14 8 0 22 -16 30 -36 17 -41 20 -67 5 -44 -6 9 -10 11 -10 3
0 -19 -30 -3 -31 16 0 9 -5 1 -11 -18 -5 -19 -13 -30 -16 -25 -8 11 -42 12
-59 1 -7 -4 -16 0 -22 10 -6 10 -11 14 -11 8 0 -5 -5 -3 -10 5 -9 13 -10 13
-10 -1 0 -8 5 -20 12 -27 6 -6 9 -14 6 -18 -4 -3 -12 5 -19 18 -6 12 -18 27
-25 31 -21 12 -17 30 14 65 23 25 31 29 42 19 10 -10 12 -9 7 6 -6 15 -3 17
13 12 11 -4 20 -2 20 4 0 14 32 19 53 8 10 -5 16 -15 13 -23z m-403 -11 c-7
-2 -19 -2 -25 0 -7 3 -2 5 12 5 14 0 19 -2 13 -5z m207 -67 c0 -2 -7 -7 -16
-10 -8 -3 -12 -2 -9 4 6 10 25 14 25 6z m-720 -18 c0 -7 -6 -33 -13 -57 -10
-31 -16 -39 -20 -28 -3 9 0 32 8 50 8 19 11 37 8 41 -4 3 -1 6 5 6 7 0 12 -6
12 -12z m-225 -28 c-3 -5 -16 -10 -28 -9 -21 0 -21 1 -2 9 28 12 37 12 30 0z
m350 1 c3 -5 1 -12 -5 -16 -5 -3 -10 1 -10 9 0 18 6 21 15 7z m69 -40 c16 -18
16 -19 -1 -17 -18 1 -33 14 -33 29 0 13 17 7 34 -12z m705 -4 c-4 -50 2 -66
30 -78 23 -10 27 -16 19 -26 -8 -10 -17 -7 -41 17 -23 22 -33 27 -39 18 -5 -9
-8 -8 -8 5 0 14 -5 16 -27 11 -28 -7 -32 -7 -68 -2 -14 2 -19 -2 -17 -14 2
-12 -4 -18 -18 -18 -11 0 -23 0 -27 -1 -4 0 -9 5 -12 12 -2 7 1 9 8 5 6 -4 11
-1 11 8 0 9 7 16 15 16 9 0 18 13 22 31 5 27 7 29 16 14 6 -12 11 -14 17 -6 5
9 17 9 46 -2 33 -11 42 -11 52 -1 18 19 15 26 -7 15 -10 -6 -21 -7 -25 -4 -13
13 -5 20 24 21 26 1 30 -3 29 -21z m-809 -17 c0 -5 -4 -10 -10 -10 -5 0 -10 5
-10 10 0 6 5 10 10 10 6 0 10 -4 10 -10z m330 -40 c0 -5 -2 -10 -4 -10 -3 0
-8 5 -11 10 -3 6 -1 10 4 10 6 0 11 -4 11 -10z m-880 -16 c0 -8 -4 -12 -10 -9
-5 3 -10 10 -10 16 0 5 5 9 10 9 6 0 10 -7 10 -16z m214 -29 c-9 -14 -24 -25
-33 -24 -13 0 -14 2 -1 6 8 4 21 14 28 25 20 27 25 22 6 -7z m1026 15 c0 -5
-2 -10 -4 -10 -3 0 -8 5 -11 10 -3 6 -1 10 4 10 6 0 11 -4 11 -10z m-130 -22
c0 -4 -4 -8 -9 -8 -6 0 -12 4 -15 8 -3 5 1 9 9 9 8 0 15 -4 15 -9z m43 -18 c3
-11 1 -18 -4 -14 -5 3 -9 12 -9 20 0 20 7 17 13 -6z m97 -24 c0 -2 -7 -7 -16
-10 -8 -3 -12 -2 -9 4 6 10 25 14 25 6z"/>
<path d="M1579 2058 c-9 -29 -3 -101 8 -105 7 -3 9 3 6 16 -3 11 -1 34 5 50 8
23 7 32 -3 41 -9 8 -14 7 -16 -2z"/>
<path d="M1489 2036 c-17 -37 -4 -76 25 -76 13 0 26 7 30 15 6 17 -9 21 -19 5
-10 -17 -25 -11 -25 10 0 15 7 20 25 20 27 0 33 18 13 38 -19 19 -37 14 -49
-12z m27 -13 c-10 -10 -19 5 -10 18 6 11 8 11 12 0 2 -7 1 -15 -2 -18z"/>
<path d="M1341 2043 c-21 -4 -23 -8 -16 -51 7 -51 21 -74 33 -56 4 6 14 13 24
17 13 5 15 12 7 44 -5 21 -9 41 -9 46 0 4 -3 6 -7 6 -5 -1 -19 -4 -32 -6z m27
-51 c2 -18 -1 -32 -7 -32 -6 0 -11 6 -11 13 0 6 -3 23 -7 36 -4 18 -2 23 8 19
8 -2 15 -19 17 -36z"/>
<path d="M1415 2003 c7 -47 11 -60 19 -52 2 2 6 25 8 52 5 42 3 47 -14 47 -18
0 -20 -4 -13 -47z"/>
<path d="M1227 2021 c-3 -12 -1 -21 3 -21 5 0 11 -13 15 -30 6 -29 21 -47 31
-37 5 5 -24 87 -36 100 -4 5 -10 -1 -13 -12z"/>
<path d="M1631 2003 c-12 -42 4 -71 33 -60 18 7 22 27 6 27 -5 0 -10 -5 -10
-11 0 -5 -4 -8 -10 -4 -15 9 0 35 22 35 28 0 20 44 -9 48 -18 3 -24 -4 -32
-35z m36 5 c-3 -8 -6 -5 -6 6 -1 11 2 17 5 13 3 -3 4 -12 1 -19z"/>
<path d="M1717 1975 c-16 -45 -4 -66 12 -22 19 50 22 67 13 67 -6 0 -17 -20
-25 -45z"/>
<path d="M1761 1998 c2 -7 -1 -28 -5 -46 -4 -18 -5 -36 -3 -39 9 -8 38 69 33
84 -7 17 -28 17 -25 1z"/>
<path d="M1190 1995 c0 -2 7 -23 16 -45 16 -40 27 -49 39 -30 3 6 2 10 -2 10
-5 0 -15 16 -22 35 -7 19 -17 35 -22 35 -5 0 -9 -2 -9 -5z"/>
<path d="M1106 1981 c-8 -12 41 -101 55 -101 13 0 11 6 -11 48 -30 58 -37 66
-44 53z"/>
<path d="M1866 1981 c-3 -5 -15 -7 -26 -4 -25 7 -61 -60 -42 -79 9 -9 12 -8
12 8 0 25 29 66 41 58 6 -3 2 -20 -11 -40 -23 -40 -24 -44 -10 -44 14 0 62 98
51 105 -5 3 -12 1 -15 -4z"/>
<path d="M1921 1898 c-32 -44 -38 -58 -22 -58 9 0 71 84 71 96 0 15 -23 -2
-49 -38z"/>
<path d="M1021 1906 c-18 -22 -2 -46 30 -46 16 0 29 -5 29 -11 0 -6 -7 -9 -15
-6 -8 4 -17 2 -20 -3 -4 -6 5 -10 18 -10 28 0 41 22 24 39 -6 6 -21 11 -34 11
-14 0 -23 6 -23 15 0 9 6 12 17 8 11 -4 14 -3 9 5 -9 16 -21 15 -35 -2z"/>
<path d="M958 1859 c-10 -6 -18 -20 -18 -31 0 -20 13 -17 16 3 1 5 2 12 3 16
0 4 14 -7 30 -25 17 -17 32 -32 35 -32 15 0 3 29 -21 52 -22 21 -32 25 -45 17z"/>
<path d="M1984 1835 c-19 -25 -24 -39 -17 -46 8 -8 13 -7 17 0 12 18 28 12 21
-8 -10 -31 8 -31 43 0 36 33 42 45 12 29 -19 -10 -20 -9 -14 17 l7 27 -29 -18
-29 -19 18 26 c26 40 2 33 -29 -8z"/>
<path d="M900 1806 c0 -4 5 -16 10 -27 12 -21 1 -26 -18 -7 -6 6 -15 9 -19 5
-4 -4 -1 -13 5 -19 19 -19 14 -30 -9 -18 -38 21 -31 2 10 -25 45 -30 74 -26
44 7 -17 19 -17 19 9 13 40 -10 41 8 3 45 -19 19 -35 30 -35 26z"/>
<path d="M970 1796 c0 -9 7 -19 15 -23 25 -9 27 2 5 22 -18 17 -20 17 -20 1z"/>
<path d="M2090 1771 c0 -6 7 -11 15 -11 8 0 15 -5 15 -11 0 -7 -12 -9 -35 -5
-43 8 -57 -13 -28 -43 18 -19 18 -19 53 10 29 24 33 32 24 47 -13 19 -44 29
-44 13z m-5 -51 c-3 -5 -10 -10 -16 -10 -5 0 -9 5 -9 10 0 6 7 10 16 10 8 0
12 -4 9 -10z"/>
<path d="M2144 1696 c-3 -8 -7 -22 -8 -32 -2 -10 -9 -20 -16 -22 -9 -3 -11 1
-7 12 4 9 2 16 -3 16 -15 0 -12 -37 3 -43 21 -8 42 10 42 34 0 12 6 24 14 27
10 3 12 0 8 -12 -4 -9 -2 -16 3 -16 14 0 12 24 -2 38 -16 16 -27 15 -34 -2z"/>
<path d="M790 1665 c-17 -20 -7 -41 28 -59 26 -13 32 -14 42 -1 19 22 8 47
-27 61 -26 11 -33 11 -43 -1z m40 -20 c26 -14 41 -35 24 -35 -12 0 -64 34 -64
42 0 11 7 10 40 -7z"/>
<path d="M727 1602 c-3 -4 1 -13 9 -20 8 -7 14 -10 14 -7 0 3 18 -4 40 -15 32
-16 40 -17 40 -6 0 8 -6 16 -12 19 -7 3 -30 12 -50 21 -20 9 -39 12 -41 8z"/>
<path d="M2178 1584 c-31 -16 -36 -35 -14 -53 11 -9 23 -9 51 3 29 12 36 20
33 38 -4 28 -33 33 -70 12z m62 -9 c0 -5 -55 -35 -65 -35 -14 0 -3 18 18 28
24 11 47 15 47 7z"/>
<path d="M730 1551 c0 -5 18 -16 40 -25 47 -19 50 -19 50 -6 0 5 -16 17 -36
25 -42 17 -54 19 -54 6z"/>
<path d="M680 1470 c0 -5 12 -12 28 -16 15 -3 39 -9 54 -14 19 -6 28 -5 31 4
4 9 -12 17 -45 24 -60 15 -68 15 -68 2z"/>
<path d="M690 1434 c0 -16 79 -39 91 -27 4 4 -15 15 -42 24 -38 12 -49 13 -49
3z"/>
<path d="M668 1383 c7 -3 16 -2 19 1 4 3 -2 6 -13 5 -11 0 -14 -3 -6 -6z"/>
<path d="M653 1347 c-7 -12 -3 -14 60 -20 42 -4 57 -2 54 6 -4 14 -106 27
-114 14z"/>
<path d="M1214 1271 c-72 -33 -74 -59 -4 -35 49 17 93 14 140 -10 28 -14 29
-13 20 5 -27 49 -97 67 -156 40z"/>
<path d="M1661 1254 c-40 -34 -40 -47 1 -26 42 20 114 20 156 0 31 -16 31 -16
22 2 -30 56 -126 69 -179 24z"/>
<path d="M653 1256 c-9 -15 14 -21 61 -18 64 5 60 27 -5 27 -28 0 -53 -4 -56
-9z"/>
<path d="M677 1203 c-4 -3 -7 -17 -7 -30 0 -16 6 -23 18 -22 10 0 12 3 5 6
-18 7 -16 33 1 33 8 0 18 -9 21 -21 7 -21 45 -24 52 -3 2 7 -6 10 -22 7 -15
-3 -25 -1 -25 6 0 6 9 11 20 11 11 0 20 5 20 10 0 11 -73 14 -83 3z"/>
<path d="M990 1137 c0 -16 45 -129 64 -161 60 -100 210 -209 326 -235 67 -16
189 -13 251 5 72 21 162 72 226 129 39 34 64 69 98 137 25 49 45 99 45 109 0
18 -16 19 -505 19 -278 0 -505 -2 -505 -3z m870 -108 c0 -24 -130 -140 -187
-167 -53 -25 -68 -27 -178 -27 -111 0 -124 2 -177 28 -64 32 -144 100 -171
146 l-18 31 365 0 c258 0 366 -3 366 -11z"/>
<path d="M708 1123 c-22 -3 -28 -10 -28 -29 0 -13 -4 -24 -10 -24 -5 0 -10 -5
-10 -11 0 -11 72 -5 106 8 27 10 13 22 -18 16 -50 -9 -50 -9 -55 4 -2 6 12 14
36 18 23 4 41 11 41 16 0 9 -12 9 -62 2z"/>
<path d="M740 1033 c-34 -6 -50 -23 -22 -23 27 0 28 -8 5 -26 -16 -12 -15 -13
12 -14 28 -1 29 -1 11 -15 -30 -23 -13 -28 28 -9 39 19 48 44 16 44 -24 0 -27
15 -4 24 8 3 12 10 9 16 -6 10 -12 11 -55 3z"/>
<path d="M2179 984 c-17 -20 -2 -45 35 -57 61 -20 82 33 21 59 -42 17 -40 17
-56 -2z m64 -21 c18 -6 24 -23 8 -23 -21 0 -61 20 -61 31 0 7 7 8 18 4 9 -4
25 -10 35 -12z"/>
<path d="M830 912 c0 -5 -18 -17 -40 -28 -22 -10 -40 -22 -40 -26 0 -12 22
-21 29 -11 3 6 20 18 38 27 21 11 30 21 27 31 -7 16 -14 20 -14 7z"/>
<path d="M2147 913 c-11 -10 -8 -41 4 -49 6 -3 22 -1 35 7 26 13 48 4 24 -11
-8 -5 -11 -13 -6 -17 4 -4 14 1 22 12 12 16 12 21 1 33 -11 10 -19 11 -40 1
-33 -15 -49 -3 -23 17 15 11 16 14 5 14 -9 0 -19 -3 -22 -7z"/>
<path d="M830 850 c-30 -15 -35 -24 -36 -54 -1 -20 3 -36 7 -36 17 0 99 62 94
71 -4 5 -23 -2 -43 -16 -47 -32 -57 -21 -12 15 42 35 37 45 -10 20z"/>
<path d="M2106 841 c-3 -5 4 -11 15 -14 17 -5 20 -11 15 -30 -7 -31 16 -43 39
-21 21 21 19 29 -11 53 -28 22 -49 27 -58 12z m64 -52 c0 -5 -4 -9 -10 -9 -5
0 -10 7 -10 16 0 8 5 12 10 9 6 -3 10 -10 10 -16z"/>
<path d="M2096 805 c4 -8 10 -12 15 -9 11 6 2 24 -11 24 -5 0 -7 -7 -4 -15z"/>
<path d="M876 766 c-21 -18 -34 -36 -29 -39 6 -4 18 2 28 13 10 11 24 20 30
20 7 0 16 7 19 17 6 14 8 14 21 -3 8 -10 15 -14 15 -8 0 13 -21 34 -34 34 -6
-1 -28 -16 -50 -34z"/>
<path d="M896 734 c-15 -14 -25 -28 -22 -32 10 -9 60 24 64 42 5 23 -9 19 -42
-10z"/>
<path d="M2027 742 c-10 -10 -17 -21 -17 -24 0 -3 20 -22 45 -42 47 -39 64
-33 19 7 -28 24 -49 57 -37 57 5 0 21 -12 36 -26 38 -35 48 -21 12 16 -34 35
-37 36 -58 12z"/>
<path d="M936 701 c-16 -16 -25 -34 -22 -40 4 -6 19 3 36 22 15 17 32 29 36
24 4 -4 -5 -21 -21 -37 -39 -40 -22 -52 17 -12 31 31 31 32 13 52 -23 26 -26
26 -59 -9z"/>
<path d="M1968 689 c-20 -11 -24 -34 -6 -45 8 -5 9 0 6 14 -7 27 19 31 29 5 4
-10 11 -21 17 -25 6 -4 7 -10 3 -15 -5 -4 -12 -1 -16 6 -5 8 -14 10 -21 6 -22
-13 18 -37 41 -24 26 14 24 31 -8 61 -22 21 -32 25 -45 17z"/>
<path d="M1012 647 c-27 -29 -28 -53 -3 -66 14 -8 23 -5 40 13 24 25 27 46 9
64 -17 17 -21 15 -46 -11z m30 -27 c-9 -16 -23 -30 -30 -30 -14 0 -9 13 16 43
24 27 33 20 14 -13z"/>
<path d="M1893 633 l-22 -15 22 -34 c26 -40 61 -43 63 -6 1 18 1 19 -3 2 -2
-11 -8 -20 -13 -20 -16 0 -21 20 -9 41 8 17 8 24 -3 34 -11 11 -17 11 -35 -2z
m27 -25 c0 -19 -2 -20 -10 -8 -13 19 -13 30 0 30 6 0 10 -10 10 -22z"/>
<path d="M1080 588 c-22 -39 -22 -42 -6 -54 10 -7 15 -17 11 -23 -3 -6 -1 -11
4 -11 9 0 29 27 65 88 4 6 2 12 -4 12 -6 0 -19 -13 -28 -30 -9 -16 -23 -30
-29 -30 -17 0 -17 3 7 44 12 19 17 37 12 40 -5 3 -19 -13 -32 -36z"/>
<path d="M1837 604 c-8 -9 45 -114 55 -108 11 7 10 41 -1 46 -5 2 -17 18 -28
35 -11 18 -22 30 -26 27z"/>
<path d="M1170 567 c0 -12 -7 -33 -16 -45 -15 -22 -11 -47 7 -36 6 3 14 16 18
27 21 55 21 65 6 71 -11 4 -15 -1 -15 -17z"/>
<path d="M1754 515 c6 -25 16 -45 23 -45 17 0 16 13 -1 55 -21 50 -34 43 -22
-10z"/>
<path d="M1255 538 c-27 -76 -33 -98 -24 -98 9 0 28 38 43 88 8 23 -11 33 -19
10z"/>
<path d="M1705 534 c4 -11 10 -31 13 -46 2 -16 11 -28 18 -28 17 0 17 -4 0 45
-8 21 -20 41 -27 44 -8 2 -10 -2 -4 -15z"/>
<path d="M1660 531 c0 -18 31 -81 40 -81 5 0 2 20 -7 45 -13 39 -33 61 -33 36z"/>
<path d="M1356 513 c-4 -10 2 -25 15 -40 25 -26 19 -44 -7 -22 -15 12 -17 12
-12 -1 6 -19 37 -25 51 -11 8 8 4 18 -13 36 -17 18 -21 28 -13 36 8 8 13 8 17
0 4 -6 12 -11 18 -11 7 0 6 6 -2 15 -17 20 -46 19 -54 -2z"/>
<path d="M1579 523 c-2 -12 1 -46 7 -70 9 -42 22 -23 16 23 -6 59 15 53 24 -7
4 -21 10 -39 15 -39 11 0 11 25 3 69 -6 26 -11 31 -35 31 -16 0 -30 -3 -30 -7z"/>
<path d="M1440 505 c-8 -9 -8 -15 -2 -15 6 0 14 5 17 10 10 17 25 11 25 -10 0
-15 -7 -20 -25 -20 -27 0 -33 -18 -13 -38 32 -32 65 2 56 59 -4 29 -39 37 -58
14z m40 -53 c0 -13 -12 -22 -22 -16 -10 6 -1 24 13 24 5 0 9 -4 9 -8z"/>
<path d="M1526 468 c2 -37 6 -53 16 -53 7 0 13 6 12 13 -1 6 -2 30 -2 52 -1
25 -7 40 -15 40 -9 0 -12 -16 -11 -52z"/>
<path d="M1691 311 c-10 -6 -5 -12 18 -24 34 -17 50 -7 25 17 -18 18 -24 19
-43 7z"/>
<path d="M1990 2660 c-8 -5 -10 -10 -5 -10 6 0 17 5 25 10 8 5 11 10 5 10 -5
0 -17 -5 -25 -10z"/>
<path d="M895 2533 c15 -36 25 -52 25 -41 0 11 -30 78 -35 78 -3 0 2 -17 10
-37z"/>
<path d="M2060 2365 c0 -13 -50 -36 -61 -29 -5 3 -9 0 -9 -7 0 -10 -3 -10 -12
-1 -20 20 -45 14 -50 -12 -6 -28 13 -41 31 -23 8 8 11 7 11 -6 0 -9 -6 -17
-14 -17 -19 0 -26 -33 -10 -54 20 -28 49 -16 47 19 0 17 1 24 4 17 2 -6 9 -10
14 -6 5 3 4 -7 -1 -22 -8 -19 -8 -29 0 -34 7 -4 5 -19 -5 -44 -9 -21 -14 -45
-12 -54 4 -14 5 -13 6 2 0 11 24 68 51 128 28 60 48 113 45 118 -3 6 -1 10 4
10 6 0 11 5 11 10 0 6 -7 10 -15 10 -8 0 -15 -6 -15 -12 0 -9 -4 -8 -10 2 -5
8 -10 11 -10 5z m22 -47 c-7 -7 -12 -8 -12 -2 0 6 3 14 7 17 3 4 9 5 12 2 2
-3 -1 -11 -7 -17z m-39 -25 c-7 -3 -13 -11 -13 -19 0 -8 -4 -14 -10 -14 -5 0
-10 5 -10 11 0 14 33 40 40 32 3 -3 -1 -8 -7 -10z m27 -19 c0 -8 -19 -13 -24
-6 -3 5 1 9 9 9 8 0 15 -2 15 -3z m-30 -44 c-6 -11 -13 -20 -16 -20 -2 0 0 9
6 20 6 11 13 20 16 20 2 0 0 -9 -6 -20z"/>
<path d="M1881 2264 c0 -11 3 -14 6 -6 3 7 2 16 -1 19 -3 4 -6 -2 -5 -13z"/>
<path d="M1882 2082 c-9 -6 -5 -12 13 -20 32 -15 45 -15 45 -1 0 6 -7 9 -15 6
-8 -4 -17 -1 -21 5 -4 7 -3 8 4 4 7 -4 12 -2 12 3 0 13 -20 14 -38 3z"/>
<path d="M474 505 c-15 -10 -13 -12 15 -10 38 2 49 11 22 18 -11 3 -28 -1 -37
-8z"/>
<path d="M1962 418 c-7 -7 -20 -13 -30 -13 -21 0 -23 -30 -2 -31 16 0 60 34
60 48 0 12 -14 10 -28 -4z"/>
<path d="M2435 420 c-11 -4 -33 -5 -50 -3 l-30 6 23 -23 c13 -12 20 -25 16
-29 -4 -3 -9 0 -11 7 -8 20 -26 13 -20 -8 3 -11 0 -20 -6 -20 -7 -1 -5 -6 4
-13 8 -7 19 -21 23 -32 8 -19 9 -19 15 -2 6 16 9 15 31 -9 l25 -27 -28 5 c-40
8 -43 -7 -12 -68 27 -54 91 -118 107 -108 4 3 8 0 8 -7 0 -8 4 -8 13 -2 18 15
80 24 95 15 10 -7 10 -14 -1 -35 -8 -16 -17 -23 -23 -17 -13 13 -63 20 -69 9
-10 -15 -25 -10 -25 7 0 14 -3 14 -15 4 -12 -10 -15 -9 -15 6 0 16 -2 17 -11
4 -8 -11 -12 -12 -16 -2 -2 6 -10 12 -17 12 -14 0 -46 51 -46 74 0 9 -4 16
-10 16 -5 0 -10 9 -10 20 0 11 -5 20 -11 20 -5 0 -7 5 -3 11 3 6 2 14 -3 18
-6 3 -20 24 -32 46 -19 36 -20 37 -15 10 6 -28 5 -29 -10 -14 -9 8 -19 29 -22
45 -5 29 -28 54 -48 54 -6 0 -4 -5 4 -10 8 -5 10 -10 3 -10 -14 0 -5 -40 14
-58 7 -7 13 -19 12 -25 0 -9 -2 -9 -5 -1 -3 7 -14 10 -24 7 -13 -4 -20 0 -20
9 0 24 -24 68 -37 68 -17 0 -16 -15 1 -33 12 -11 11 -15 -5 -25 -10 -6 -25 -9
-34 -6 -10 4 -15 0 -15 -12 0 -23 14 -46 26 -43 5 1 17 1 27 0 14 -1 16 -5 7
-21 -7 -14 -7 -25 1 -38 16 -26 5 -54 -18 -45 -10 4 -12 8 -5 11 7 2 12 8 12
14 0 6 -6 8 -14 5 -8 -3 -17 -1 -20 6 -2 7 -5 4 -5 -6 -1 -10 4 -27 9 -38 9
-15 7 -19 -6 -19 -10 0 -14 5 -10 15 3 9 0 15 -10 15 -8 0 -12 5 -9 10 3 6 -1
10 -9 10 -10 0 -13 -6 -10 -15 4 -8 10 -15 15 -15 5 0 9 -10 9 -22 0 -19 -2
-20 -10 -8 -8 13 -10 13 -10 -2 0 -9 5 -20 11 -24 8 -5 8 -8 0 -13 -6 -4 -14
-23 -17 -41 -6 -33 -6 -34 9 -15 14 17 16 17 17 4 0 -15 18 -17 145 -18 104
-1 145 2 145 10 0 9 3 9 14 0 9 -8 56 -11 142 -9 125 3 129 4 132 26 2 12 -2
22 -8 22 -6 0 -9 4 -6 8 8 13 -26 172 -37 172 -5 0 -7 -6 -5 -12 3 -7 -3 -21
-12 -31 -17 -18 -18 -17 -25 12 -3 17 -4 34 -1 39 3 5 -3 16 -12 25 -23 21
-34 37 -51 70 -8 15 -18 27 -23 27 -4 0 -8 9 -8 21 0 11 -4 17 -10 14 -12 -7
-53 19 -43 28 8 9 4 8 -22 -3z m51 -68 c-18 -16 -18 -16 -6 6 6 13 14 21 18
18 3 -4 -2 -14 -12 -24z m39 -12 c3 -5 1 -10 -4 -10 -6 0 -11 5 -11 10 0 6 2
10 4 10 3 0 8 -4 11 -10z m-45 -19 c0 -6 -4 -12 -8 -15 -5 -3 -9 1 -9 9 0 8 4
15 9 15 4 0 8 -4 8 -9z m-280 -41 c0 -5 -4 -10 -10 -10 -5 0 -10 5 -10 10 0 6
5 10 10 10 6 0 10 -4 10 -10z m310 -65 c0 -17 -49 -11 -53 6 -3 12 1 15 14 12
12 -3 19 0 19 8 0 11 2 11 10 -1 5 -8 10 -19 10 -25z m80 25 c0 -5 -4 -10 -10
-10 -5 0 -10 5 -10 10 0 6 5 10 10 10 6 0 10 -4 10 -10z m-319 -63 c-8 -8 -11
-5 -11 9 0 27 14 41 18 19 2 -9 -1 -22 -7 -28z m-51 23 c0 -5 -4 -10 -9 -10
-6 0 -13 5 -16 10 -3 6 1 10 9 10 9 0 16 -4 16 -10z m255 -39 c-6 -5 -25 10
-25 20 0 5 6 4 14 -3 8 -7 12 -15 11 -17z m50 19 c3 -5 1 -10 -4 -10 -6 0 -11
5 -11 10 0 6 2 10 4 10 3 0 8 -4 11 -10z m-205 -40 c0 -5 -4 -10 -10 -10 -5 0
-10 5 -10 10 0 6 5 10 10 10 6 0 10 -4 10 -10z m-157 -55 c4 -8 2 -17 -3 -20
-6 -4 -10 3 -10 14 0 25 6 27 13 6z m227 5 c0 -5 -5 -10 -11 -10 -5 0 -7 5 -4
10 3 6 8 10 11 10 2 0 4 -4 4 -10z m-230 -59 c0 -6 -4 -13 -10 -16 -5 -3 -10
1 -10 9 0 9 5 16 10 16 6 0 10 -4 10 -9z"/>
<path d="M1960 169 c13 -46 20 -48 20 -6 0 25 -4 37 -14 37 -12 0 -13 -7 -6
-31z"/>
<path d="M2003 172 c-15 -25 -1 -46 26 -37 27 8 30 55 3 55 -9 0 -22 -8 -29
-18z"/>
<path d="M2619 92 c9 -7 10 -11 2 -15 -7 -4 -8 -5 -1 -3 16 2 14 20 -2 24 -10
3 -10 2 1 -6z"/>
</g>
</svg>
